<?xml version="1.0" encoding="UTF-8" standalone="no"?>
<!-- Created with Inkscape (http://www.inkscape.org/) -->

<svg
   xmlns:dc="http://purl.org/dc/elements/1.1/"
   xmlns:cc="http://creativecommons.org/ns#"
   xmlns:rdf="http://www.w3.org/1999/02/22-rdf-syntax-ns#"
   xmlns:svg="http://www.w3.org/2000/svg"
   xmlns="http://www.w3.org/2000/svg"
   xmlns:xlink="http://www.w3.org/1999/xlink"
   xmlns:sodipodi="http://sodipodi.sourceforge.net/DTD/sodipodi-0.dtd"
   xmlns:inkscape="http://www.inkscape.org/namespaces/inkscape"
   width="48px"
   height="48px"
   id="svg6664"
   version="1.1"
   inkscape:version="0.47 r22583"
   sodipodi:docname="peopleNew.svg"
   inkscape:export-filename="/home/os/Desktop/peopleNew.png"
   inkscape:export-xdpi="90"
   inkscape:export-ydpi="90">
  <defs
     id="defs6666">
    <linearGradient
       id="linearGradient7377">
      <stop
         style="stop-color:#787878;stop-opacity:0.39215687;"
         offset="0"
         id="stop7379" />
      <stop
         style="stop-color:#a3a3a3;stop-opacity:0.39215687;"
         offset="1"
         id="stop7381" />
    </linearGradient>
    <inkscape:perspective
       sodipodi:type="inkscape:persp3d"
       inkscape:vp_x="0 : 24 : 1"
       inkscape:vp_y="0 : 1000 : 0"
       inkscape:vp_z="48 : 24 : 1"
       inkscape:persp3d-origin="24 : 16 : 1"
       id="perspective6672" />
    <inkscape:perspective
       id="perspective7233"
       inkscape:persp3d-origin="0.5 : 0.33333333 : 1"
       inkscape:vp_z="1 : 0.5 : 1"
       inkscape:vp_y="0 : 1000 : 0"
       inkscape:vp_x="0 : 0.5 : 1"
       sodipodi:type="inkscape:persp3d" />
    <inkscape:perspective
       id="perspective7255"
       inkscape:persp3d-origin="0.5 : 0.33333333 : 1"
       inkscape:vp_z="1 : 0.5 : 1"
       inkscape:vp_y="0 : 1000 : 0"
       inkscape:vp_x="0 : 0.5 : 1"
       sodipodi:type="inkscape:persp3d" />
    <inkscape:perspective
       id="perspective7298"
       inkscape:persp3d-origin="0.5 : 0.33333333 : 1"
       inkscape:vp_z="1 : 0.5 : 1"
       inkscape:vp_y="0 : 1000 : 0"
       inkscape:vp_x="0 : 0.5 : 1"
       sodipodi:type="inkscape:persp3d" />
    <inkscape:perspective
       id="perspective7298-7"
       inkscape:persp3d-origin="0.5 : 0.33333333 : 1"
       inkscape:vp_z="1 : 0.5 : 1"
       inkscape:vp_y="0 : 1000 : 0"
       inkscape:vp_x="0 : 0.5 : 1"
       sodipodi:type="inkscape:persp3d" />
    <linearGradient
       inkscape:collect="always"
       xlink:href="#linearGradient7377"
       id="linearGradient7383"
       x1="2.6551051"
       y1="24.15625"
       x2="45.313644"
       y2="24.15625"
       gradientUnits="userSpaceOnUse" />
    <inkscape:perspective
       id="perspective7393"
       inkscape:persp3d-origin="0.5 : 0.33333333 : 1"
       inkscape:vp_z="1 : 0.5 : 1"
       inkscape:vp_y="0 : 1000 : 0"
       inkscape:vp_x="0 : 0.5 : 1"
       sodipodi:type="inkscape:persp3d" />
    <linearGradient
       inkscape:collect="always"
       xlink:href="#linearGradient7377-5"
       id="linearGradient7383-6"
       x1="2.6551051"
       y1="24.15625"
       x2="45.313644"
       y2="24.15625"
       gradientUnits="userSpaceOnUse" />
    <linearGradient
       id="linearGradient7377-5">
      <stop
         style="stop-color:#787878;stop-opacity:0.39215687;"
         offset="0"
         id="stop7379-0" />
      <stop
         style="stop-color:#a3a3a3;stop-opacity:0.39215687;"
         offset="1"
         id="stop7381-0" />
    </linearGradient>
    <filter
       inkscape:collect="always"
       id="filter7468"
       x="-0.09751663"
       width="1.1950333"
       y="-0.15595745"
       height="1.3119149">
      <feGaussianBlur
         inkscape:collect="always"
         stdDeviation="1.7179688"
         id="feGaussianBlur7470" />
    </filter>
    <inkscape:perspective
       id="perspective7481"
       inkscape:persp3d-origin="0.5 : 0.33333333 : 1"
       inkscape:vp_z="1 : 0.5 : 1"
       inkscape:vp_y="0 : 1000 : 0"
       inkscape:vp_x="0 : 0.5 : 1"
       sodipodi:type="inkscape:persp3d" />
    <linearGradient
       inkscape:collect="always"
       xlink:href="#linearGradient7377-6"
       id="linearGradient7383-4"
       x1="2.6551051"
       y1="24.15625"
       x2="45.313644"
       y2="24.15625"
       gradientUnits="userSpaceOnUse" />
    <linearGradient
       id="linearGradient7377-6">
      <stop
         style="stop-color:#787878;stop-opacity:0.39215687;"
         offset="0"
         id="stop7379-6" />
      <stop
         style="stop-color:#a3a3a3;stop-opacity:0.39215687;"
         offset="1"
         id="stop7381-02" />
    </linearGradient>
    <filter
       inkscape:collect="always"
       id="filter7515">
      <feGaussianBlur
         inkscape:collect="always"
         stdDeviation="0.34359375"
         id="feGaussianBlur7517" />
    </filter>
    <inkscape:perspective
       id="perspective7555"
       inkscape:persp3d-origin="0.5 : 0.33333333 : 1"
       inkscape:vp_z="1 : 0.5 : 1"
       inkscape:vp_y="0 : 1000 : 0"
       inkscape:vp_x="0 : 0.5 : 1"
       sodipodi:type="inkscape:persp3d" />
    <linearGradient
       inkscape:collect="always"
       xlink:href="#linearGradient7377-8"
       id="linearGradient7383-60"
       x1="2.6551051"
       y1="24.15625"
       x2="45.313644"
       y2="24.15625"
       gradientUnits="userSpaceOnUse" />
    <linearGradient
       id="linearGradient7377-8">
      <stop
         style="stop-color:#787878;stop-opacity:0.39215687;"
         offset="0"
         id="stop7379-3" />
      <stop
         style="stop-color:#a3a3a3;stop-opacity:0.39215687;"
         offset="1"
         id="stop7381-7" />
    </linearGradient>
    <linearGradient
       y2="24.15625"
       x2="45.313644"
       y1="24.15625"
       x1="2.6551051"
       gradientUnits="userSpaceOnUse"
       id="linearGradient7564"
       xlink:href="#linearGradient7377-8"
       inkscape:collect="always" />
    <clipPath
       clipPathUnits="userSpaceOnUse"
       id="clipPath7585">
      <path
         style="fill:url(#linearGradient7589);fill-opacity:1;stroke:none;display:inline"
         d="m 24.09375,10.9375 c -2.381096,0 -4.3125,1.931404 -4.3125,4.3125 0,2.381096 1.931404,4.3125 4.3125,4.3125 2.381096,0 4.3125,-1.931404 4.3125,-4.3125 0,-2.381096 -1.931404,-4.3125 -4.3125,-4.3125 z M 12.125,16.03125 c -2.3810957,0 -4.3125,1.931404 -4.3125,4.3125 0,2.381096 1.9314043,4.3125 4.3125,4.3125 2.381096,0 4.3125,-1.931404 4.3125,-4.3125 0,-2.381096 -1.931404,-4.3125 -4.3125,-4.3125 z m 23.6875,0.03125 c -2.381096,0 -4.3125,1.931404 -4.3125,4.3125 0,2.381096 1.931404,4.3125 4.3125,4.3125 2.381096,0 4.3125,-1.931404 4.3125,-4.3125 0,-2.381096 -1.931404,-4.3125 -4.3125,-4.3125 z m -12.5,4.84375 C 22.004905,20.9717 17.661257,21.606174 15.75,26.6875 14.030525,25.98474 12.594977,26.03041 12.59375,26.03125 l -0.03125,11.3125 8.875,0 C 21.42194,35.290023 21.142832,33.626949 20.6875,32.25 l 3,0 0,-11.34375 c -3.79e-4,-2.59e-4 -0.134681,-0.01203 -0.375,0 z m 1.25,0 0,11.34375 2.71875,0 c -0.460881,1.382229 -0.734332,3.057075 -0.75,5.125 l 8.875,0 0,-11.3125 c -0.0012,-8.02e-4 -1.320791,-0.04501 -2.9375,0.5625 -2.279682,-5.945132 -7.90382,-5.720412 -7.90625,-5.71875 z m -13.21875,5.125 c -1.6822298,0.0842 -8.4223451,1.063 -8.5,11.3125 l 8.875,0 0,-11.3125 c -3.79e-4,-2.59e-4 -0.134681,-0.01203 -0.375,0 z M 36.25,26.0625 l 0,11.3125 8.875,0 C 45.03625,25.661285 36.253029,26.060429 36.25,26.0625 z"
         id="path7587" />
    </clipPath>
    <linearGradient
       inkscape:collect="always"
       xlink:href="#linearGradient7377-8"
       id="linearGradient7589"
       gradientUnits="userSpaceOnUse"
       x1="2.6551051"
       y1="24.15625"
       x2="45.313644"
       y2="24.15625" />
  </defs>
  <sodipodi:namedview
     id="base"
     pagecolor="#ffffff"
     bordercolor="#666666"
     borderopacity="1.0"
     inkscape:pageopacity="0.0"
     inkscape:pageshadow="2"
     inkscape:zoom="7"
     inkscape:cx="13.769"
     inkscape:cy="23.620181"
     inkscape:current-layer="layer15"
     showgrid="true"
     inkscape:grid-bbox="true"
     inkscape:document-units="px"
     inkscape:window-width="1024"
     inkscape:window-height="693"
     inkscape:window-x="0"
     inkscape:window-y="25"
     inkscape:window-maximized="1" />
  <metadata
     id="metadata6669">
    <rdf:RDF>
      <cc:Work
         rdf:about="">
        <dc:format>image/svg+xml</dc:format>
        <dc:type
           rdf:resource="http://purl.org/dc/dcmitype/StillImage" />
        <dc:title></dc:title>
      </cc:Work>
    </rdf:RDF>
  </metadata>
  <g
     id="layer1"
     inkscape:label="Layer 1"
     inkscape:groupmode="layer"
     style="display:inline"
     sodipodi:insensitive="true">
    <path
       style="fill:url(#linearGradient7383);fill-opacity:1;stroke:none"
       d="m 24.09375,10.9375 c -2.381096,0 -4.3125,1.931404 -4.3125,4.3125 0,2.381096 1.931404,4.3125 4.3125,4.3125 2.381096,0 4.3125,-1.931404 4.3125,-4.3125 0,-2.381096 -1.931404,-4.3125 -4.3125,-4.3125 z M 12.125,16.03125 c -2.3810957,0 -4.3125,1.931404 -4.3125,4.3125 0,2.381096 1.9314043,4.3125 4.3125,4.3125 2.381096,0 4.3125,-1.931404 4.3125,-4.3125 0,-2.381096 -1.931404,-4.3125 -4.3125,-4.3125 z m 23.6875,0.03125 c -2.381096,0 -4.3125,1.931404 -4.3125,4.3125 0,2.381096 1.931404,4.3125 4.3125,4.3125 2.381096,0 4.3125,-1.931404 4.3125,-4.3125 0,-2.381096 -1.931404,-4.3125 -4.3125,-4.3125 z m -12.5,4.84375 C 22.004905,20.9717 17.661257,21.606174 15.75,26.6875 14.030525,25.98474 12.594977,26.03041 12.59375,26.03125 l -0.03125,11.3125 8.875,0 C 21.42194,35.290023 21.142832,33.626949 20.6875,32.25 l 3,0 0,-11.34375 c -3.79e-4,-2.59e-4 -0.134681,-0.01203 -0.375,0 z m 1.25,0 0,11.34375 2.71875,0 c -0.460881,1.382229 -0.734332,3.057075 -0.75,5.125 l 8.875,0 0,-11.3125 c -0.0012,-8.02e-4 -1.320791,-0.04501 -2.9375,0.5625 -2.279682,-5.945132 -7.90382,-5.720412 -7.90625,-5.71875 z m -13.21875,5.125 c -1.6822298,0.0842 -8.4223451,1.063 -8.5,11.3125 l 8.875,0 0,-11.3125 c -3.79e-4,-2.59e-4 -0.134681,-0.01203 -0.375,0 z M 36.25,26.0625 l 0,11.3125 8.875,0 C 45.03625,25.661285 36.253029,26.060429 36.25,26.0625 z"
       id="path6674" />
  </g>
  <g
     inkscape:groupmode="layer"
     id="layer14"
     inkscape:label="glow"
     sodipodi:insensitive="true"
     style="display:inline">
    <path
       style="fill:none;stroke:#ffffff;stroke-width:2;stroke-miterlimit:4;stroke-opacity:1;stroke-dasharray:none;filter:url(#filter7468)"
       d="m 24.09375,10.9375 c -2.381096,0 -4.3125,1.931404 -4.3125,4.3125 0,2.381096 1.931404,4.3125 4.3125,4.3125 2.381096,0 4.3125,-1.931404 4.3125,-4.3125 0,-2.381096 -1.931404,-4.3125 -4.3125,-4.3125 z M 12.125,16.03125 c -2.3810957,0 -4.3125,1.931404 -4.3125,4.3125 0,2.381096 1.9314043,4.3125 4.3125,4.3125 2.381096,0 4.3125,-1.931404 4.3125,-4.3125 0,-2.381096 -1.931404,-4.3125 -4.3125,-4.3125 z m 23.6875,0.03125 c -2.381096,0 -4.3125,1.931404 -4.3125,4.3125 0,2.381096 1.931404,4.3125 4.3125,4.3125 2.381096,0 4.3125,-1.931404 4.3125,-4.3125 0,-2.381096 -1.931404,-4.3125 -4.3125,-4.3125 z m -12.5,4.84375 C 22.004905,20.9717 17.661257,21.606174 15.75,26.6875 14.030525,25.98474 12.594977,26.03041 12.59375,26.03125 l -0.03125,11.3125 8.875,0 C 21.42194,35.290023 21.142832,33.626949 20.6875,32.25 l 3,0 0,-11.34375 c -3.79e-4,-2.59e-4 -0.134681,-0.01203 -0.375,0 z m 1.25,0 0,11.34375 2.71875,0 c -0.460881,1.382229 -0.734332,3.057075 -0.75,5.125 l 8.875,0 0,-11.3125 c -0.0012,-8.02e-4 -1.320791,-0.04501 -2.9375,0.5625 -2.279682,-5.945132 -7.90382,-5.720412 -7.90625,-5.71875 z m -13.21875,5.125 c -1.6822298,0.0842 -8.4223451,1.063 -8.5,11.3125 l 8.875,0 0,-11.3125 c -3.79e-4,-2.59e-4 -0.134681,-0.01203 -0.375,0 z M 36.25,26.0625 l 0,11.3125 8.875,0 C 45.03625,25.661285 36.253029,26.060429 36.25,26.0625 z"
       id="path6674-3" />
  </g>
  <g
     inkscape:groupmode="layer"
     id="layer15"
     inkscape:label="sinker"
     style="display:inline">
    <path
       style="fill:none;stroke:#000000;stroke-opacity:1;display:inline;filter:url(#filter7515)"
       d="m 24.09375,10.9375 c -2.381096,0 -4.3125,1.931404 -4.3125,4.3125 0,2.381096 1.931404,4.3125 4.3125,4.3125 2.381096,0 4.3125,-1.931404 4.3125,-4.3125 0,-2.381096 -1.931404,-4.3125 -4.3125,-4.3125 z M 12.125,16.03125 c -2.3810957,0 -4.3125,1.931404 -4.3125,4.3125 0,2.381096 1.9314043,4.3125 4.3125,4.3125 2.381096,0 4.3125,-1.931404 4.3125,-4.3125 0,-2.381096 -1.931404,-4.3125 -4.3125,-4.3125 z m 23.6875,0.03125 c -2.381096,0 -4.3125,1.931404 -4.3125,4.3125 0,2.381096 1.931404,4.3125 4.3125,4.3125 2.381096,0 4.3125,-1.931404 4.3125,-4.3125 0,-2.381096 -1.931404,-4.3125 -4.3125,-4.3125 z m -12.5,4.84375 C 22.004905,20.9717 17.661257,21.606174 15.75,26.6875 14.030525,25.98474 12.594977,26.03041 12.59375,26.03125 l -0.03125,11.3125 8.875,0 C 21.42194,35.290023 21.142832,33.626949 20.6875,32.25 l 3,0 0,-11.34375 c -3.79e-4,-2.59e-4 -0.134681,-0.01203 -0.375,0 z m 1.25,0 0,11.34375 2.71875,0 c -0.460881,1.382229 -0.734332,3.057075 -0.75,5.125 l 8.875,0 0,-11.3125 c -0.0012,-8.02e-4 -1.320791,-0.04501 -2.9375,0.5625 -2.279682,-5.945132 -7.90382,-5.720412 -7.90625,-5.71875 z m -13.21875,5.125 c -1.6822298,0.0842 -8.4223451,1.063 -8.5,11.3125 l 8.875,0 0,-11.3125 c -3.79e-4,-2.59e-4 -0.134681,-0.01203 -0.375,0 z M 36.25,26.0625 l 0,11.3125 8.875,0 C 45.03625,25.661285 36.253029,26.060429 36.25,26.0625 z"
       id="path6674-5"
       clip-path="url(#clipPath7585)" />
  </g>
</svg>
